# xmcd
#
# Track frame offsets: 
#        150
#        26688
#        53257
#        86350
#
# Disc length: 1382 seconds
#
# Revision: 0
# Processed by: cddbd v1.5.2PL0 Copyright (c) Steve Scherf et al.
# Submitted via: ExactAudioCopy v1.0b3
#
DISCID=1f056404
DTITLE=Joy - Joyride
DYEAR=1900
DGENRE=
TTITLE0=Joyride (Joy Mix)
TTITLE1=Joyride (Bangin' Funk Mix)
TTITLE2=Joyride (Club Mix)
TTITLE3=Joyride (Joy Edit)
EXTD=
EXTT0=
EXTT1=
EXTT2=
EXTT3=
PLAYORDER=
